<svg width="40" height="38" viewBox="0" fill="#8556aa" xmlns="http://www.w3.org/2000/svg">
<path d="M3.63287 18.5974C3.63287 18.5974 3.53479 1.79544 11.6896 1.75049C11.6896 1.75049 28.3526 5.3569 23.51 17.2795C23.51 17.2795 18.6654 14.7724 15.7148 14.895C15.7148 14.895 12.7643 26.0309 24.1107 26.9504C34.1698 27.7677 37.29 18.7078 37.29 18.7078C37.29 24.2737 24.1107 35.5608 12.5396 35.6957C11.4709 35.7079 3.62265 36.3087 3.63287 18.5933" fill="#8556aa"/>
<path fill-rule="evenodd" clip-rule="evenodd" d="M16.0764 2.0263C14.6313 1.75217 13.1572 1.66223 11.6895 1.75863C15.0404 2.64542 18.2464 4.29436 20.6799 6.81782C25.4858 11.8137 25.404 18.5586 19.08 21.5438C18.5467 21.7951 18.4405 22.0649 18.8757 22.5225C21.201 25.234 25.9475 26.2005 30.1853 24.8866C33.1358 23.9794 36.685 21.3129 37.3021 18.7179C37.3021 18.6199 37.3021 18.5136 37.3021 18.4237C37.1509 15.8308 34.9237 13.291 33.1808 11.5153C31.0619 9.38215 25.3672 3.79579 16.0764 2.0263Z" fill="#8556aa"/>
</svg>
